<svg width="301" height="107" viewBox="0 0 301 107" fill="none" xmlns="http://www.w3.org/2000/svg">
<path d="M17.7563 69.5638H16.6264L20.5224 73.8233L16.4316 78.6543H17.5615L21.6262 73.8493L17.7563 69.5638ZM21.4574 69.5638V78.6543H22.3664V69.5638H21.4574ZM25.9377 69.5638L22.1976 73.8493L26.1325 78.6543H27.2623L23.1976 73.8233L27.0675 69.5638H25.9377Z" fill="#E9DFC8"/>
<path d="M47.5698 70.5118L47.6218 69.1093L39.8689 77.7063L39.8169 79.1088L47.5698 70.5118ZM40.726 69.5638H39.8169V79.1088L40.726 77.914V69.5638ZM47.6218 69.1093L46.7127 70.304V78.6543H47.6218V69.1093Z" fill="#E9DFC8"/>
<path d="M67.4994 69.5638H61.4477V75.3297C61.4477 75.6761 61.4217 76.005 61.3698 76.3167C61.3179 76.6197 61.2399 76.8881 61.1361 77.1219C61.0322 77.3556 60.9066 77.5418 60.7594 77.6803C60.6123 77.8102 60.4391 77.8751 60.24 77.8751V78.6543C60.6902 78.6543 61.0668 78.5114 61.3698 78.2257C61.6815 77.94 61.9152 77.5591 62.0711 77.0829C62.2269 76.6067 62.3048 76.0916 62.3048 75.5375V70.4209H66.5903V78.6543H67.4994V69.5638Z" fill="#E9DFC8"/>
<path d="M81.4781 74.109C81.4781 73.3904 81.634 72.7498 81.9457 72.187C82.2573 71.6156 82.6859 71.1698 83.2313 70.8494C83.7767 70.5204 84.3914 70.356 85.0754 70.356C85.7767 70.356 86.3957 70.5204 86.9324 70.8494C87.4779 71.1698 87.9064 71.6156 88.2181 72.187C88.5298 72.7498 88.6856 73.3904 88.6856 74.109C88.6856 74.8276 88.5298 75.4726 88.2181 76.044C87.9064 76.6067 87.4779 77.0526 86.9324 77.3816C86.3957 77.7019 85.7767 77.8621 85.0754 77.8621C84.3914 77.8621 83.7767 77.7019 83.2313 77.3816C82.6859 77.0526 82.2573 76.6067 81.9457 76.044C81.634 75.4726 81.4781 74.8276 81.4781 74.109ZM80.5172 74.109C80.5172 74.767 80.6297 75.3817 80.8548 75.9531C81.0799 76.5245 81.3959 77.0223 81.8028 77.4465C82.2184 77.8621 82.7032 78.1911 83.2573 78.4335C83.82 78.6673 84.4261 78.7841 85.0754 78.7841C85.742 78.7841 86.3481 78.6673 86.8935 78.4335C87.4476 78.1911 87.9281 77.8621 88.335 77.4465C88.7505 77.0223 89.0709 76.5245 89.296 75.9531C89.5297 75.3817 89.6466 74.767 89.6466 74.109C89.6466 73.4424 89.5297 72.8277 89.296 72.265C89.0709 71.6936 88.7505 71.2001 88.335 70.7845C87.9281 70.3603 87.4476 70.0313 86.8935 69.7975C86.3481 69.5551 85.742 69.4339 85.0754 69.4339C84.4261 69.4339 83.82 69.5551 83.2573 69.7975C82.7032 70.0313 82.2184 70.3603 81.8028 70.7845C81.3959 71.2001 81.0799 71.6936 80.8548 72.265C80.6297 72.8277 80.5172 73.4424 80.5172 74.109Z" fill="#E9DFC8"/>
<path d="M110.477 70.5118L110.529 69.1093L102.776 77.7063L102.724 79.1088L110.477 70.5118ZM103.633 69.5638H102.724V79.1088L103.633 77.914V69.5638ZM110.529 69.1093L109.62 70.304V78.6543H110.529V69.1093ZM104.893 66.9146C104.893 67.2089 104.967 67.4989 105.114 67.7846C105.27 68.0617 105.499 68.2911 105.802 68.4729C106.114 68.6461 106.495 68.7326 106.945 68.7326C107.404 68.7326 107.785 68.6461 108.088 68.4729C108.391 68.2911 108.616 68.0617 108.763 67.7846C108.919 67.4989 108.997 67.2089 108.997 66.9146H108.231C108.231 67.0617 108.187 67.2219 108.101 67.395C108.023 67.5682 107.889 67.7197 107.698 67.8496C107.516 67.9708 107.265 68.0314 106.945 68.0314C106.616 68.0314 106.356 67.9708 106.166 67.8496C105.984 67.7197 105.85 67.5682 105.763 67.395C105.685 67.2219 105.646 67.0617 105.646 66.9146H104.893Z" fill="#E9DFC8"/>
<path d="M139.391 69.5638V78.6543H140.3V69.5638H139.391ZM143.975 69.5638L140.027 73.8493L144.157 78.6543H145.3L141.131 73.8233L145.105 69.5638H143.975Z" fill="#E9DFC8"/>
<path d="M157.97 74.109C157.97 73.3904 158.125 72.7498 158.437 72.187C158.749 71.6156 159.177 71.1698 159.723 70.8494C160.268 70.5204 160.883 70.356 161.567 70.356C162.268 70.356 162.887 70.5204 163.424 70.8494C163.969 71.1698 164.398 71.6156 164.71 72.187C165.021 72.7498 165.177 73.3904 165.177 74.109C165.177 74.8276 165.021 75.4726 164.71 76.044C164.398 76.6067 163.969 77.0526 163.424 77.3816C162.887 77.7019 162.268 77.8621 161.567 77.8621C160.883 77.8621 160.268 77.7019 159.723 77.3816C159.177 77.0526 158.749 76.6067 158.437 76.044C158.125 75.4726 157.97 74.8276 157.97 74.109ZM157.009 74.109C157.009 74.767 157.121 75.3817 157.346 75.9531C157.571 76.5245 157.887 77.0223 158.294 77.4465C158.71 77.8621 159.195 78.1911 159.749 78.4335C160.312 78.6673 160.918 78.7841 161.567 78.7841C162.234 78.7841 162.84 78.6673 163.385 78.4335C163.939 78.1911 164.42 77.8621 164.826 77.4465C165.242 77.0223 165.562 76.5245 165.787 75.9531C166.021 75.3817 166.138 74.767 166.138 74.109C166.138 73.4424 166.021 72.8277 165.787 72.265C165.562 71.6936 165.242 71.2001 164.826 70.7845C164.42 70.3603 163.939 70.0313 163.385 69.7975C162.84 69.5551 162.234 69.4339 161.567 69.4339C160.918 69.4339 160.312 69.5551 159.749 69.7975C159.195 70.0313 158.71 70.3603 158.294 70.7845C157.887 71.2001 157.571 71.6936 157.346 72.265C157.121 72.8277 157.009 73.4424 157.009 74.109Z" fill="#E9DFC8"/>
<path d="M180.359 71.9922L183.437 77.7063L186.514 71.9922L187.242 78.6543H188.151L187.073 69.1612L183.437 75.9401L179.8 69.1612L178.722 78.6543H179.632L180.359 71.9922Z" fill="#E9DFC8"/>
<path d="M207.235 70.4209V78.6543H208.144V69.5638H201.131V78.6543H202.04V70.4209H207.235Z" fill="#E9DFC8"/>
<path d="M228.003 69.5638H221.951V75.3297C221.951 75.6761 221.925 76.005 221.873 76.3167C221.821 76.6197 221.743 76.8881 221.64 77.1219C221.536 77.3556 221.41 77.5418 221.263 77.6803C221.116 77.8102 220.943 77.8751 220.743 77.8751V78.6543C221.194 78.6543 221.57 78.5114 221.873 78.2257C222.185 77.94 222.419 77.5591 222.575 77.0829C222.73 76.6067 222.808 76.0916 222.808 75.5375V70.4209H227.094V78.6543H228.003V69.5638Z" fill="#E9DFC8"/>
<path d="M242.034 78.6543H246.579V77.7972H242.034V78.6543ZM242.034 70.4209H246.579V69.5638H242.034V70.4209ZM242.034 74.122H246.319V73.2649H242.034V74.122ZM241.54 69.5638V78.6543H242.449V69.5638H241.54Z" fill="#E9DFC8"/>
<path d="M260.095 69.5638V78.6543H261.004V69.5638H260.095ZM264.679 69.5638L260.731 73.8493L264.861 78.6543H266.004L261.835 73.8233L265.809 69.5638H264.679Z" fill="#E9DFC8"/>
<path d="M278.674 74.109C278.674 73.3645 278.834 72.7108 279.154 72.1481C279.483 71.5853 279.912 71.1481 280.44 70.8364C280.977 70.5161 281.565 70.356 282.206 70.356C282.63 70.356 283.02 70.4079 283.375 70.5118C283.739 70.6157 284.068 70.7672 284.362 70.9663C284.656 71.1568 284.912 71.3862 285.128 71.6546V70.4469C284.747 70.1092 284.332 69.8581 283.881 69.6936C283.431 69.5205 282.873 69.4339 282.206 69.4339C281.574 69.4339 280.985 69.5508 280.44 69.7845C279.895 70.0096 279.418 70.3343 279.011 70.7585C278.605 71.1741 278.284 71.6676 278.05 72.239C277.825 72.8104 277.713 73.4337 277.713 74.109C277.713 74.7843 277.825 75.4077 278.05 75.9791C278.284 76.5505 278.605 77.0483 279.011 77.4725C279.418 77.8881 279.895 78.2127 280.44 78.4465C280.985 78.6716 281.574 78.7841 282.206 78.7841C282.873 78.7841 283.431 78.7019 283.881 78.5374C284.332 78.3642 284.747 78.1088 285.128 77.7712V76.5635C284.912 76.8318 284.656 77.0656 284.362 77.2647C284.068 77.4552 283.743 77.6024 283.388 77.7063C283.033 77.8102 282.639 77.8621 282.206 77.8621C281.565 77.8621 280.977 77.7019 280.44 77.3816C279.912 77.0613 279.483 76.6197 279.154 76.057C278.834 75.4942 278.674 74.8449 278.674 74.109Z" fill="#E9DFC8"/>
<path d="M0 73.6732H4.98109V74.7406H0V73.6732Z" fill="#E9DFC8"/>
<path d="M296.019 73.6732H301V74.7406H296.019V73.6732Z" fill="#E9DFC8"/>
<path d="M1.43679 30.0093V21.6749H2.1763C2.32287 22.6342 2.68929 23.1139 3.27556 23.1139C3.54205 23.1139 4.00841 22.9807 4.67463 22.7142C6.44677 22.0213 8.13898 21.6749 9.75123 21.6749C12.5227 21.6749 14.6613 22.3611 16.1669 23.7335C17.6859 25.1059 18.4454 26.6848 18.4454 28.4703C18.4454 29.3098 18.2522 30.1625 17.8658 31.0286C17.4927 31.8814 16.8531 32.6609 15.9471 33.367C15.0543 34.0599 13.6153 34.6662 11.63 35.1858C14.5214 35.6655 16.5533 36.5982 17.7259 37.984C18.8984 39.3564 19.4847 40.8354 19.4847 42.421C19.4847 43.7934 19.0783 45.0859 18.2655 46.2984C17.4661 47.4976 16.3002 48.417 14.7679 49.0565C13.2489 49.6961 11.3235 50.0159 8.99174 50.0159C6.73991 50.0159 4.95444 49.7094 3.63532 49.0965C2.32953 48.4836 1.15698 47.4776 0.117676 46.0785L0.957114 45.2391C2.80921 47.2378 4.75457 48.2371 6.79321 48.2371C8.47209 48.2371 9.7912 47.6975 10.7506 46.6182C11.7232 45.5256 12.2096 44.1065 12.2096 42.361C12.2096 41.0286 11.9031 39.876 11.2902 38.9033C10.6773 37.9173 9.93777 37.2711 9.07169 36.9646C8.2056 36.6449 6.91979 36.465 5.21427 36.425V34.6662C5.68062 34.6795 6.06703 34.6862 6.37349 34.6862C8.23891 34.6862 9.55803 34.1732 10.3308 33.1472C11.117 32.1079 11.5101 30.5956 11.5101 28.6102C11.5101 26.7182 11.1103 25.3657 10.3109 24.5529C9.51139 23.7268 8.56536 23.3138 7.47276 23.3138C5.99374 23.3138 4.78788 23.9 3.85518 25.0726C2.93579 26.2318 2.4228 27.8774 2.3162 30.0093H1.43679Z" fill="#E9DFC8"/>
<path d="M36.7332 21.9147C41.0503 21.7548 44.5546 23.014 47.2461 25.6922C49.951 28.3704 51.3034 31.7215 51.3034 35.7455C51.3034 39.1832 50.2974 42.2078 48.2854 44.8194C45.6206 48.2837 41.8564 50.0159 36.993 50.0159C32.1163 50.0159 28.3455 48.3637 25.6806 45.0592C23.5753 42.4476 22.5227 39.3497 22.5227 35.7654C22.5227 31.7415 23.8884 28.3904 26.6199 25.7122C29.3648 23.0206 32.7359 21.7548 36.7332 21.9147ZM36.973 23.1939C34.4947 23.1939 32.6093 24.4597 31.3168 26.9913C30.2642 29.0699 29.7379 32.0546 29.7379 35.9453C29.7379 40.5689 30.5506 43.9866 32.1762 46.1985C33.3088 47.7441 34.8944 48.5169 36.933 48.5169C38.3055 48.5169 39.4514 48.1838 40.3707 47.5176C41.5433 46.6648 42.456 45.3057 43.1089 43.4403C43.7618 41.5616 44.0883 39.1165 44.0883 36.1052C44.0883 32.5209 43.7551 29.8427 43.0889 28.0706C42.4227 26.2851 41.5699 25.026 40.5306 24.2931C39.5047 23.5603 38.3188 23.1939 36.973 23.1939Z" fill="#E9DFC8"/>
<path d="M80.0842 23.034C78.6185 23.034 77.6725 23.2671 77.2461 23.7335C76.8197 24.1998 76.6065 25.0659 76.6065 26.3318V45.1791C76.6065 46.6182 76.8197 47.5509 77.2461 47.9773C77.6725 48.4037 78.6518 48.6302 80.1841 48.6568V49.3963H66.5133V48.6568C67.6059 48.6568 68.372 48.5702 68.8117 48.397C69.2647 48.2104 69.5912 47.9107 69.7911 47.4976C69.9909 47.0845 70.0909 46.3517 70.0909 45.2991V24.0533H63.5752V32.1479C63.5752 35.5323 63.4886 38.1105 63.3154 39.8827C63.1555 41.6548 62.6958 43.3404 61.9363 44.9393C61.1902 46.5249 60.2241 47.7174 59.0383 48.5169C57.8524 49.3164 56.5399 49.7161 55.1009 49.7161C53.7951 49.7161 52.7824 49.3763 52.0629 48.6968C51.3434 48.0039 50.9836 47.1512 50.9836 46.1385C50.9836 45.2991 51.2035 44.6129 51.6432 44.0799C52.0829 43.5336 52.7158 43.2604 53.5419 43.2604C55.0742 43.2604 55.9203 44.2131 56.0802 46.1185C56.1469 46.9713 56.48 47.3977 57.0796 47.3977C57.919 47.3977 58.8117 46.838 59.7578 45.7188C60.7038 44.5862 61.3301 43.0339 61.6365 41.0619C61.943 39.0899 62.0962 36.2318 62.0962 32.4876V27.3711C62.0962 25.9187 62.0029 24.9527 61.8164 24.473C61.6432 23.98 61.2967 23.6269 60.7771 23.4137C60.2708 23.1872 59.358 23.0606 58.0389 23.034V22.2945H80.0842V23.034Z" fill="#E9DFC8"/>
<path d="M97.0528 21.9147C101.37 21.7548 104.874 23.014 107.566 25.6922C110.271 28.3704 111.623 31.7215 111.623 35.7455C111.623 39.1832 110.617 42.2078 108.605 44.8194C105.94 48.2837 102.176 50.0159 97.3126 50.0159C92.4359 50.0159 88.6651 48.3637 86.0002 45.0592C83.895 42.4476 82.8423 39.3497 82.8423 35.7654C82.8423 31.7415 84.2081 28.3904 86.9396 25.7122C89.6844 23.0206 93.0555 21.7548 97.0528 21.9147ZM97.2927 23.1939C94.8143 23.1939 92.9289 24.4597 91.6364 26.9913C90.5838 29.0699 90.0575 32.0546 90.0575 35.9453C90.0575 40.5689 90.8703 43.9866 92.4959 46.1985C93.6284 47.7441 95.2141 48.5169 97.2527 48.5169C98.6251 48.5169 99.771 48.1838 100.69 47.5176C101.863 46.6648 102.776 45.3057 103.429 43.4403C104.081 41.5616 104.408 39.1165 104.408 36.1052C104.408 32.5209 104.075 29.8427 103.409 28.0706C102.742 26.2851 101.89 25.026 100.85 24.2931C99.8243 23.5603 98.6384 23.1939 97.2927 23.1939Z" fill="#E9DFC8"/>
<path d="M138.925 22.2945V29.6295H138.205C137.779 27.9373 137.306 26.7248 136.786 25.992C136.267 25.2458 135.554 24.6529 134.648 24.2132C134.141 23.9733 133.255 23.8534 131.989 23.8534H129.971V44.7594C129.971 46.1452 130.044 47.0113 130.191 47.3577C130.351 47.7041 130.65 48.0106 131.09 48.2771C131.543 48.5302 132.156 48.6568 132.929 48.6568H133.828V49.3963H119.638V48.6568H120.537C121.323 48.6568 121.956 48.5169 122.436 48.2371C122.782 48.0506 123.055 47.7308 123.255 47.2777C123.402 46.958 123.475 46.1185 123.475 44.7594V23.8534H121.516C119.691 23.8534 118.365 24.2398 117.539 25.0126C116.38 26.0919 115.647 27.6309 115.341 29.6295H114.581V22.2945H138.925Z" fill="#E9DFC8"/>
<path d="M155.654 21.9147C159.971 21.7548 163.475 23.014 166.167 25.6922C168.871 28.3704 170.224 31.7215 170.224 35.7455C170.224 39.1832 169.218 42.2078 167.206 44.8194C164.541 48.2837 160.777 50.0159 155.913 50.0159C151.037 50.0159 147.266 48.3637 144.601 45.0592C142.496 42.4476 141.443 39.3497 141.443 35.7654C141.443 31.7415 142.809 28.3904 145.54 25.7122C148.285 23.0206 151.656 21.7548 155.654 21.9147ZM155.893 23.1939C153.415 23.1939 151.53 24.4597 150.237 26.9913C149.185 29.0699 148.658 32.0546 148.658 35.9453C148.658 40.5689 149.471 43.9866 151.097 46.1985C152.229 47.7441 153.815 48.5169 155.854 48.5169C157.226 48.5169 158.372 48.1838 159.291 47.5176C160.464 46.6648 161.376 45.3057 162.029 43.4403C162.682 41.5616 163.009 39.1165 163.009 36.1052C163.009 32.5209 162.676 29.8427 162.009 28.0706C161.343 26.2851 160.49 25.026 159.451 24.2931C158.425 23.5603 157.239 23.1939 155.893 23.1939Z" fill="#E9DFC8"/>
<path d="M187.572 19.6762C184.841 19.6762 182.862 19.3164 181.636 18.5969C180.41 17.8641 179.797 16.9647 179.797 15.8987C179.797 15.3524 179.991 14.8994 180.377 14.5396C180.763 14.1799 181.236 14 181.796 14C182.875 14 183.702 14.6995 184.274 16.0986C184.594 16.8581 184.994 17.3911 185.474 17.6975C185.967 18.004 186.633 18.1572 187.472 18.1572C188.458 18.1572 189.184 18.004 189.651 17.6975C190.117 17.3911 190.55 16.8248 190.95 15.9987C191.576 14.6795 192.409 14.02 193.448 14.02C194.008 14.02 194.481 14.1999 194.867 14.5596C195.267 14.9194 195.467 15.4124 195.467 16.0386C195.467 17.0779 194.834 17.944 193.568 18.6369C192.302 19.3298 190.304 19.6762 187.572 19.6762ZM192.409 26.7715C192.396 25.3058 192.216 24.3198 191.869 23.8134C191.536 23.2938 190.69 23.034 189.331 23.034H188.432V22.2945H202.962V23.034H202.023C200.77 23.034 199.937 23.2738 199.524 23.7535C199.125 24.2332 198.925 25.2858 198.925 26.9114V44.7394C198.925 46.405 199.131 47.4776 199.544 47.9573C199.957 48.4236 200.783 48.6568 202.023 48.6568H202.962V49.3963H188.432V48.6568H189.331C190.597 48.6568 191.423 48.4103 191.809 47.9173C192.209 47.411 192.409 46.3517 192.409 44.7394V30.0293L182.855 45.0193C182.855 46.3117 183.015 47.2444 183.335 47.8174C183.655 48.377 184.521 48.6568 185.933 48.6568H186.873V49.3963H172.342V48.6568H173.242C174.508 48.6568 175.34 48.4103 175.74 47.9173C176.14 47.411 176.34 46.3517 176.34 44.7394V26.9114C176.34 25.2858 176.18 24.2332 175.86 23.7535C175.54 23.2738 174.668 23.034 173.242 23.034H172.342V22.2945H186.873V23.034H185.933C184.708 23.034 183.888 23.3004 183.475 23.8334C183.062 24.3531 182.855 25.3791 182.855 26.9114V41.7614L192.409 26.7715Z" fill="#E9DFC8"/>
<path d="M229.924 22.2945H242.975V23.034C241.23 23.034 240.164 23.2138 239.777 23.5736C239.391 23.92 239.198 24.7661 239.198 26.1119V45.2391C239.198 46.2518 239.258 46.958 239.378 47.3577C239.511 47.7441 239.784 48.0572 240.197 48.2971C240.623 48.5236 241.25 48.6368 242.076 48.6368C242.222 48.6368 242.522 48.6435 242.975 48.6568V49.3963H228.885V48.6568C230.11 48.6302 230.943 48.5369 231.383 48.377C231.836 48.2171 232.169 47.9306 232.382 47.5176C232.595 47.1045 232.702 46.4849 232.702 45.6588V36.9047C229.531 38.5436 226.666 39.363 224.108 39.363C222.695 39.363 221.49 39.1365 220.49 38.6835C219.504 38.2171 218.798 37.5576 218.372 36.7048C217.959 35.8387 217.752 34.5796 217.752 32.9273V26.5916C217.752 25.0726 217.486 24.0999 216.953 23.6735C216.42 23.2471 215.447 23.034 214.035 23.034V22.2945H227.066V23.034C226.186 23.034 225.5 23.2205 225.007 23.5936C224.514 23.9533 224.268 24.7128 224.268 25.8721V33.1472C224.268 33.9733 224.334 34.5929 224.468 35.0059C224.601 35.419 224.927 35.7921 225.447 36.1252C225.967 36.445 226.639 36.6049 227.466 36.6049C229.144 36.6049 230.89 36.1385 232.702 35.2058V26.8714C232.702 25.6722 232.642 24.8594 232.522 24.433C232.416 24.0066 232.162 23.6669 231.763 23.4137C231.363 23.1605 230.75 23.034 229.924 23.034V22.2945Z" fill="#E9DFC8"/>
<path d="M260.883 41.6815H251.31L250.17 44.3197C249.797 45.1991 249.611 45.9253 249.611 46.4983C249.611 47.2578 249.917 47.8174 250.53 48.1771C250.89 48.3903 251.776 48.5502 253.188 48.6568V49.3963H244.174V48.6568C245.147 48.5103 245.947 48.1105 246.573 47.4576C247.199 46.7914 247.972 45.4256 248.891 43.3604L258.585 21.7348H258.965L268.738 43.96C269.671 46.0652 270.437 47.391 271.036 47.9373C271.489 48.3504 272.129 48.5902 272.955 48.6568V49.3963H259.844V48.6568H260.384C261.436 48.6568 262.176 48.5103 262.602 48.2171C262.895 48.0039 263.042 47.6975 263.042 47.2977C263.042 47.0579 263.002 46.8114 262.922 46.5582C262.895 46.4383 262.695 45.9386 262.322 45.0592L260.883 41.6815ZM260.204 40.2025L256.166 30.8687L252.009 40.2025H260.204Z" fill="#E9DFC8"/>
<path d="M298.718 21.6749V31.0686H297.938C297.352 28.6169 296.26 26.7381 294.661 25.4324C293.062 24.1266 291.25 23.4737 289.224 23.4737C287.532 23.4737 285.98 23.96 284.567 24.9327C283.155 25.9054 282.122 27.1779 281.469 28.7501C280.63 30.7621 280.21 33.0006 280.21 35.4656C280.21 37.8907 280.517 40.1025 281.13 42.1012C281.743 44.0865 282.702 45.5922 284.008 46.6182C285.314 47.6308 287.006 48.1372 289.084 48.1372C290.79 48.1372 292.349 47.7641 293.761 47.0179C295.187 46.2717 296.686 44.9859 298.258 43.1605V45.4989C296.739 47.0845 295.154 48.2371 293.501 48.9566C291.862 49.6628 289.944 50.0159 287.745 50.0159C284.854 50.0159 282.282 49.4363 280.03 48.2771C277.792 47.1178 276.06 45.4523 274.834 43.2804C273.621 41.1085 273.015 38.7967 273.015 36.3451C273.015 33.7601 273.688 31.3084 275.034 28.99C276.393 26.6715 278.218 24.8727 280.51 23.5936C282.815 22.3144 285.26 21.6749 287.845 21.6749C289.751 21.6749 291.763 22.0879 293.881 22.914C295.107 23.3937 295.886 23.6336 296.22 23.6336C296.646 23.6336 297.012 23.4803 297.319 23.1739C297.639 22.8541 297.845 22.3544 297.938 21.6749H298.718Z" fill="#E9DFC8"/>
<line y1="0.5" x2="301" y2="0.5" stroke="#E9DFC8"/>
<line y1="106.5" x2="301" y2="106.5" stroke="#E9DFC8"/>
</svg>
