<svg width="183" height="185" viewBox="0 0 183 185" fill="none" xmlns="http://www.w3.org/2000/svg">
<g clip-path="url(#clip0_2674_9787)">
<path fill-rule="evenodd" clip-rule="evenodd" d="M-0.00439453 92.5007C-0.00439453 41.6002 41.0103 0.0721436 91.4662 0.0721436C141.922 0.0721436 182.979 41.6506 182.979 92.5343C182.979 143.418 141.922 184.997 91.4662 184.997H79.3715L80.2799 184.269C35.107 178.648 -0.00439453 139.567 -0.00439453 92.5007ZM93.8267 176.469C138.438 175.198 174.495 138.006 174.495 92.5343C174.495 46.2637 137.159 8.56601 91.4662 8.56601C45.7733 8.56601 8.47933 46.2133 8.47933 92.5007C8.47933 138.787 45.8228 176.469 91.5082 176.469H93.8267Z" fill="white"/>
<path fill-rule="evenodd" clip-rule="evenodd" d="M143.132 131.348L162.852 131.558L91.5248 11.7032V43.9564L143.132 131.348ZM39.9176 131.348L20.1978 131.558L91.5248 11.7032V43.9564L39.9176 131.348Z" fill="white"/>
<path d="M79.0469 108.975H76.4119V91.8447C75.6479 92.5596 74.803 93.1828 73.8945 93.7014C73.0026 94.247 72.0648 94.7137 71.0918 95.096V92.5C72.5132 91.8329 73.8258 90.9549 74.9854 89.8955C75.9526 89.0913 76.7511 88.1034 77.335 86.9886H79.0133L79.0469 108.975Z" fill="white"/>
<path d="M93.6061 108.975H90.9628V91.8447C90.201 92.5623 89.3558 93.1857 88.4454 93.7014C87.5516 94.249 86.6109 94.7158 85.6343 95.096V92.5C87.0609 91.8377 88.377 90.9592 89.5363 89.8955C90.5081 89.0937 91.3098 88.1054 91.8943 86.9886H93.5726L93.6061 108.975Z" fill="white"/>
<path d="M114.4 106.404V108.975H100.076C100.048 108.336 100.153 107.698 100.386 107.102C100.794 106.032 101.391 105.044 102.148 104.186C103.219 102.999 104.38 101.898 105.622 100.893C107.379 99.5329 108.98 97.9833 110.397 96.2723C111.145 95.3512 111.58 94.2151 111.639 93.0294C111.644 92.5277 111.548 92.0302 111.356 91.5668C111.164 91.1034 110.881 90.6835 110.523 90.3325C109.71 89.5952 108.64 89.2061 107.544 89.2487C106.981 89.2206 106.419 89.3091 105.892 89.5086C105.365 89.708 104.885 90.0143 104.481 90.4081C104.081 90.8336 103.772 91.3359 103.571 91.8846C103.371 92.4334 103.283 93.0172 103.315 93.6007L100.579 93.3402C100.641 91.5527 101.401 89.8608 102.694 88.627C104.074 87.4878 105.833 86.9117 107.62 87.0139C108.515 86.9653 109.41 87.0956 110.255 87.397C111.099 87.6985 111.875 88.1651 112.537 88.7698C113.132 89.3195 113.603 89.9895 113.92 90.7355C114.237 91.4814 114.392 92.2862 114.375 93.0966C114.365 93.9839 114.179 94.8605 113.829 95.6758C113.387 96.6542 112.792 97.556 112.067 98.3475C110.781 99.712 109.414 100.997 107.972 102.195C106.378 103.565 105.354 104.481 104.909 104.959C104.481 105.404 104.096 105.887 103.76 106.404H114.4Z" fill="white"/>
<path fill-rule="evenodd" clip-rule="evenodd" d="M76.9494 86.3502H79.6501L79.6856 109.614H75.7743V93.2193C75.2796 93.5971 74.76 93.942 74.2189 94.2514C73.2977 94.8142 72.3294 95.2957 71.3249 95.6905L70.4541 96.0327V92.0942L70.8212 91.9219C72.1844 91.2821 73.4434 90.44 74.5556 89.424L74.5666 89.4139L74.578 89.4044C75.4804 88.6541 76.2255 87.7323 76.7703 86.6922L76.9494 86.3502ZM77.7123 87.6272C77.1125 88.6728 76.3313 89.6042 75.4044 90.3773C74.3006 91.3838 73.064 92.2326 71.7296 92.9003V94.1318C72.3591 93.8438 72.971 93.5182 73.5621 93.1566L73.5703 93.1516L73.5787 93.1468C74.444 92.6528 75.2488 92.0593 75.9765 91.3783L77.0498 90.374V108.337H78.4082L78.3766 87.6272H77.7123Z" fill="white"/>
<path fill-rule="evenodd" clip-rule="evenodd" d="M91.5085 86.3502H94.2094L94.2449 109.614H90.3251V93.2225C89.8308 93.6003 89.311 93.9442 88.769 94.2518C87.8457 94.8168 86.874 95.2985 85.8655 95.6912L84.9966 96.0296V92.0923L85.366 91.9208C86.7332 91.2861 87.9944 90.4442 89.1055 89.4249L89.1178 89.4136L89.1307 89.4029C90.0369 88.6552 90.7844 87.7336 91.3294 86.6924L91.5085 86.3502ZM92.2716 87.6272C91.6707 88.6747 90.8863 89.6066 89.9549 90.3776C88.8511 91.3883 87.6113 92.2379 86.2721 92.902V94.1346C86.9047 93.8468 87.5194 93.5203 88.1126 93.1569L88.1219 93.1512L88.1314 93.1458C88.9973 92.6552 89.8012 92.0623 90.5259 91.3797L91.6006 90.3673V108.337H92.9675L92.9358 87.6272H92.2716Z" fill="white"/>
<path fill-rule="evenodd" clip-rule="evenodd" d="M103.117 89.1051C102.1 90.0831 101.45 91.3753 101.266 92.7642L102.693 92.9C102.733 92.4792 102.826 92.0641 102.972 91.6652C103.202 91.0353 103.558 90.4588 104.017 89.9704L104.026 89.9604L104.036 89.9509C104.502 89.4958 105.057 89.1418 105.666 88.9113C106.267 88.684 106.907 88.5815 107.548 88.6096C108.801 88.5683 110.021 89.0161 110.951 89.8591L110.96 89.8675L110.969 89.8763C111.389 90.2875 111.721 90.7794 111.945 91.3224C112.17 91.8653 112.283 92.4481 112.277 93.0358L112.277 93.0484L112.276 93.061C112.211 94.3824 111.726 95.6485 110.892 96.6751L110.888 96.6799C109.442 98.4252 107.809 100.006 106.018 101.394C104.805 102.376 103.67 103.452 102.624 104.612C101.918 105.412 101.362 106.332 100.982 107.329L100.98 107.334C100.854 107.657 100.771 107.994 100.733 108.337H113.762V107.043H102.583L103.225 106.056C103.583 105.506 103.992 104.992 104.446 104.52C104.923 104.008 105.976 103.068 107.557 101.711L107.565 101.704C108.985 100.523 110.333 99.257 111.6 97.9125C112.277 97.1733 112.832 96.3313 113.246 95.4181C113.561 94.6818 113.728 93.8904 113.737 93.0893L113.737 93.0829C113.752 92.363 113.615 91.648 113.333 90.9853C113.052 90.3232 112.634 89.7284 112.106 89.2403C111.506 88.6933 110.804 88.2712 110.04 87.9984C109.276 87.7254 108.465 87.6074 107.654 87.6514L107.619 87.6534L107.583 87.6513C105.965 87.5588 104.371 88.0778 103.117 89.1051ZM107.621 86.3745C105.686 86.2727 103.784 86.9003 102.288 88.1342L102.271 88.1488L102.254 88.1647C100.84 89.5136 100.01 91.3636 99.9419 93.3179L99.921 93.9189L103.992 94.3064L103.952 93.5662C103.925 93.069 103.999 92.5716 104.17 92.1039C104.339 91.6406 104.6 91.2161 104.936 90.8557C105.275 90.5278 105.677 90.2726 106.117 90.1058C106.562 89.9373 107.037 89.8627 107.512 89.8864L107.541 89.8878L107.569 89.8867C108.494 89.8507 109.397 90.1775 110.086 90.7973C110.378 91.0863 110.61 91.431 110.767 91.8112C110.924 92.1913 111.004 92.5991 111.002 93.0104C110.947 94.0548 110.563 95.0551 109.904 95.8671C108.517 97.5411 106.951 99.0572 105.232 100.388L105.227 100.392L105.222 100.396C103.953 101.422 102.767 102.547 101.675 103.759L101.671 103.764C100.863 104.678 100.226 105.731 99.7914 106.872C99.5268 107.55 99.4066 108.276 99.4387 109.003L99.4656 109.614H115.038V105.766H105.037C105.144 105.642 105.254 105.521 105.368 105.403L105.376 105.394C105.791 104.948 106.782 104.059 108.383 102.683C109.844 101.469 111.229 100.168 112.531 98.7856L112.537 98.7791C113.308 97.9378 113.94 96.9791 114.41 95.939L114.413 95.9335L114.415 95.928C114.798 95.0362 115.001 94.0775 115.012 93.1069C115.031 92.2072 114.859 91.3137 114.507 90.4856C114.155 89.6564 113.631 88.9116 112.97 88.3005L112.967 88.298C112.242 87.6362 111.393 87.1255 110.469 86.7956C109.556 86.4696 108.588 86.3266 107.621 86.3745Z" fill="white"/>
<path d="M65.8277 129.492V115.029H59.4228C58.1352 115.029 57.1564 115.16 56.4864 115.423C55.8163 115.68 55.2809 116.137 54.8802 116.795C54.4795 117.452 54.2791 118.179 54.2791 118.975C54.2791 120.001 54.6109 120.866 55.2743 121.57C55.9378 122.273 56.9626 122.721 58.3487 122.911C57.8429 123.155 57.4586 123.395 57.1958 123.632C56.6374 124.145 56.1086 124.786 55.6094 125.555L53.0967 129.492H55.501L57.4126 126.483C57.971 125.615 58.4308 124.95 58.7921 124.49C59.1534 124.029 59.4753 123.707 59.7578 123.523C60.0468 123.339 60.3392 123.211 60.6348 123.138C60.8515 123.092 61.2063 123.069 61.699 123.069H63.916V129.492H65.8277ZM63.916 121.412H59.8071C58.9334 121.412 58.2502 121.323 57.7575 121.145C57.2648 120.961 56.8904 120.672 56.6342 120.277C56.378 119.876 56.2499 119.442 56.2499 118.975C56.2499 118.291 56.4962 117.729 56.9889 117.288C57.4881 116.847 58.2732 116.627 59.3439 116.627H63.916V121.412Z" fill="white"/>
<path d="M69.0184 114.956H70.9397V121.322C71.8178 121.322 72.4351 121.153 72.7916 120.816C73.1481 120.472 73.6037 119.653 74.1582 118.357C74.561 117.405 74.8911 116.734 75.1486 116.344C75.4127 115.948 75.7857 115.617 76.2677 115.353C76.7496 115.082 77.2811 114.946 77.8621 114.946C78.6015 114.946 78.9911 114.953 79.0307 114.966V116.632C78.9647 116.632 78.8359 116.628 78.6445 116.622C78.4332 116.615 78.3044 116.612 78.2582 116.612C77.6442 116.612 77.1887 116.761 76.8916 117.058C76.5879 117.355 76.2412 117.99 75.8517 118.962C75.3631 120.191 74.9505 120.968 74.6138 121.292C74.2771 121.609 73.8743 121.864 73.4056 122.055C74.3431 122.313 75.2674 123.179 76.1785 124.653L79.1693 129.492H76.7826L74.3563 125.545C73.6895 124.455 73.1316 123.708 72.6826 123.305C72.2337 122.895 71.6527 122.69 70.9397 122.69V129.492H69.0184V114.956Z" fill="white"/>
<path d="M79.5853 114.956H81.5263L86.2601 123.86L90.3997 114.956H92.3111L86.8642 126.259C86.1842 127.674 85.6263 128.599 85.1906 129.036C84.7548 129.472 84.1309 129.69 83.3188 129.69C82.8237 129.69 82.2163 129.574 81.4966 129.343V127.697C82.0116 127.994 82.5563 128.143 83.1307 128.143C83.5994 128.143 84.0022 127.994 84.3389 127.697C84.6822 127.393 85.0585 126.706 85.4679 125.635L79.5853 114.956Z" fill="white"/>
<path d="M97.6391 129.492V116.671H92.8558V114.956H104.363V116.671H99.5603V129.492H97.6391Z" fill="white"/>
<path d="M116.703 124.395L118.624 124.881C118.222 126.461 117.495 127.667 116.446 128.5C115.402 129.326 114.125 129.74 112.613 129.74C111.048 129.74 109.774 129.422 108.79 128.788C107.813 128.147 107.067 127.221 106.552 126.011C106.044 124.802 105.79 123.503 105.79 122.115C105.79 120.601 106.077 119.282 106.651 118.159C107.232 117.028 108.054 116.172 109.117 115.591C110.187 115.002 111.362 114.708 112.643 114.708C114.095 114.708 115.317 115.078 116.307 115.819C117.297 116.559 117.987 117.6 118.377 118.942L116.485 119.388C116.148 118.33 115.66 117.56 115.019 117.078C114.379 116.595 113.574 116.354 112.603 116.354C111.487 116.354 110.553 116.622 109.8 117.157C109.054 117.693 108.529 118.413 108.226 119.319C107.922 120.218 107.77 121.146 107.77 122.105C107.77 123.341 107.948 124.422 108.305 125.347C108.668 126.266 109.229 126.953 109.989 127.409C110.748 127.866 111.57 128.094 112.454 128.094C113.531 128.094 114.442 127.783 115.188 127.162C115.934 126.54 116.439 125.618 116.703 124.395Z" fill="white"/>
<path d="M121.031 114.956H122.952V121.322C123.83 121.322 124.447 121.153 124.804 120.816C125.16 120.472 125.616 119.653 126.171 118.357C126.573 117.405 126.903 116.734 127.161 116.344C127.425 115.948 127.798 115.617 128.28 115.353C128.762 115.082 129.293 114.946 129.874 114.946C130.614 114.946 131.003 114.953 131.043 114.966V116.632C130.977 116.632 130.848 116.628 130.657 116.622C130.446 116.615 130.317 116.612 130.271 116.612C129.657 116.612 129.201 116.761 128.904 117.058C128.6 117.355 128.254 117.99 127.864 118.962C127.376 120.191 126.963 120.968 126.626 121.292C126.289 121.609 125.887 121.864 125.418 122.055C126.355 122.313 127.28 123.179 128.191 124.653L131.182 129.492H128.795L126.369 125.545C125.702 124.455 125.144 123.708 124.695 123.305C124.246 122.895 123.665 122.69 122.952 122.69V129.492H121.031V114.956Z" fill="white"/>
</g>
<defs>
<clipPath id="clip0_2674_9787">
<rect width="183" height="185" fill="white"/>
</clipPath>
</defs>
</svg>
