<svg width="52" height="52" viewBox="0 0 52 52" fill="none" xmlns="http://www.w3.org/2000/svg">
<g clip-path="url(#clip0_2590_2307)">
<path fill-rule="evenodd" clip-rule="evenodd" d="M25.9904 50.805C39.6509 50.805 50.7887 39.6635 50.7887 26.0094C50.7887 12.3553 39.6509 1.21375 25.9904 1.21375C12.3299 1.21375 1.2041 12.3411 1.2041 25.9999C1.2041 39.6588 12.3442 50.7956 26.0023 50.7956L25.9904 50.805Z" fill="#DD2A1B"/>
<path fill-rule="evenodd" clip-rule="evenodd" d="M-0.00146484 26.0002C-0.00146484 11.693 11.653 0.0202637 25.9902 0.0202637C40.3274 0.0202637 51.9938 11.7072 51.9938 26.0096C51.9938 40.3121 40.3274 51.999 25.9902 51.999H22.5534L22.8116 51.7945C9.97554 50.2145 -0.00146484 39.2297 -0.00146484 26.0002ZM26.6609 49.6021C39.3374 49.2447 49.5831 38.7908 49.5831 26.0096C49.5831 13.0038 38.974 2.40773 25.9902 2.40773C13.0064 2.40773 2.40921 12.9897 2.40921 26.0002C2.40921 39.0105 13.0205 49.6021 26.0021 49.6021H26.6609Z" fill="#FEFEFE"/>
<path fill-rule="evenodd" clip-rule="evenodd" d="M40.6714 36.9195L46.2748 36.9786L26.007 3.28955V12.3553L40.6714 36.9195ZM11.3427 36.9195L5.73926 36.9786L26.007 3.28955V12.3553L11.3427 36.9195Z" fill="#FEFEFE"/>
<path d="M22.4611 30.6308H21.7124V25.8157C21.4953 26.0167 21.2552 26.1919 20.9971 26.3376C20.7436 26.491 20.4772 26.6222 20.2007 26.7296V25.9999C20.6046 25.8124 20.9776 25.5656 21.3071 25.2679C21.5819 25.0418 21.8088 24.7641 21.9747 24.4508H22.4516L22.4611 30.6308Z" fill="#FEFEFE"/>
<path d="M26.5982 30.6308H25.8471V25.8157C25.6307 26.0175 25.3905 26.1927 25.1318 26.3376C24.8778 26.4916 24.6105 26.6228 24.333 26.7296V25.9999C24.7384 25.8138 25.1123 25.5669 25.4418 25.2679C25.7179 25.0425 25.9457 24.7647 26.1118 24.4508H26.5887L26.5982 30.6308Z" fill="#FEFEFE"/>
<path d="M32.5071 29.9083V30.6309H28.4368C28.4288 30.4512 28.4589 30.2718 28.525 30.1043C28.6409 29.8036 28.8105 29.526 29.0258 29.2849C29.3298 28.9512 29.6599 28.6416 30.0129 28.3592C30.5119 27.9768 30.9669 27.5413 31.3697 27.0603C31.5823 26.8014 31.7059 26.4821 31.7226 26.1488C31.724 26.0078 31.6967 25.868 31.6422 25.7377C31.5877 25.6074 31.5072 25.4894 31.4054 25.3908C31.1744 25.1835 30.8705 25.0742 30.559 25.0861C30.3991 25.0782 30.2392 25.1031 30.0895 25.1592C29.9397 25.2152 29.8033 25.3013 29.6886 25.412C29.575 25.5316 29.487 25.6728 29.43 25.827C29.373 25.9813 29.3483 26.1454 29.3572 26.3094L28.5799 26.2362C28.5975 25.7337 28.8132 25.2582 29.1808 24.9114C29.5731 24.5912 30.0729 24.4293 30.5804 24.458C30.8347 24.4443 31.0893 24.4809 31.3292 24.5657C31.5691 24.6504 31.7895 24.7816 31.9777 24.9515C32.1468 25.106 32.2808 25.2944 32.3708 25.504C32.4608 25.7137 32.5048 25.9399 32.4999 26.1677C32.4971 26.4171 32.4444 26.6635 32.3449 26.8927C32.2192 27.1677 32.0502 27.4212 31.8442 27.6436C31.4788 28.0272 31.0902 28.3883 30.6806 28.7252C30.2275 29.1101 29.9366 29.3675 29.8103 29.5021C29.6886 29.6269 29.5792 29.7629 29.4836 29.9083H32.5071Z" fill="#FEFEFE"/>
<path fill-rule="evenodd" clip-rule="evenodd" d="M21.8652 24.2714H22.6326L22.6427 30.8103H21.5313V26.2021C21.3907 26.3083 21.2431 26.4053 21.0893 26.4922C20.8276 26.6504 20.5524 26.7858 20.267 26.8967L20.0195 26.9929V25.8859L20.1238 25.8375C20.5112 25.6576 20.869 25.4209 21.185 25.1353L21.1881 25.1325L21.1913 25.1298C21.4478 24.9189 21.6595 24.6598 21.8143 24.3675L21.8652 24.2714ZM22.082 24.6303C21.9115 24.9242 21.6895 25.186 21.4262 25.4033C21.1125 25.6862 20.7611 25.9248 20.382 26.1125V26.4586C20.5608 26.3777 20.7347 26.2861 20.9027 26.1845L20.905 26.1831L20.9074 26.1818C21.1533 26.0429 21.382 25.8761 21.5887 25.6847L21.8937 25.4024V30.4514H22.2797L22.2707 24.6303H22.082Z" fill="#FEFEFE"/>
<path fill-rule="evenodd" clip-rule="evenodd" d="M26.0022 24.2714H26.7697L26.7798 30.8103H25.666V26.203C25.5255 26.3092 25.3778 26.4059 25.2238 26.4923C24.9614 26.6512 24.6853 26.7866 24.3988 26.8969L24.1519 26.992V25.8854L24.2568 25.8372C24.6453 25.6587 25.0037 25.4221 25.3194 25.1356L25.3229 25.1324L25.3266 25.1294C25.5841 24.9193 25.7965 24.6602 25.9514 24.3675L26.0022 24.2714ZM26.2191 24.6303C26.0483 24.9247 25.8254 25.1867 25.5608 25.4034C25.2471 25.6875 24.8948 25.9263 24.5143 26.1129V26.4594C24.6941 26.3785 24.8687 26.2867 25.0373 26.1846L25.0399 26.183L25.0426 26.1815C25.2887 26.0436 25.5171 25.8769 25.723 25.6851L26.0284 25.4005V30.4514H26.4168L26.4078 24.6303H26.2191Z" fill="#FEFEFE"/>
<path fill-rule="evenodd" clip-rule="evenodd" d="M29.3006 25.0457C29.0115 25.3206 28.8269 25.6838 28.7747 26.0742L29.1801 26.1124C29.1914 25.9941 29.218 25.8774 29.2594 25.7653C29.3248 25.5882 29.4258 25.4262 29.5563 25.2889L29.5589 25.2861L29.5617 25.2834C29.6942 25.1555 29.8519 25.056 30.025 24.9912C30.1955 24.9273 30.3774 24.8985 30.5595 24.9064C30.9156 24.8948 31.2624 25.0207 31.5267 25.2576L31.5293 25.26L31.5318 25.2624C31.651 25.378 31.7453 25.5163 31.8092 25.6689C31.873 25.8215 31.9051 25.9853 31.9034 26.1505L31.9033 26.1541L31.9031 26.1576C31.8845 26.529 31.7468 26.8849 31.5099 27.1735L31.5088 27.1748C31.0979 27.6654 30.6339 28.1097 30.1249 28.4998C29.7801 28.7759 29.4576 29.0783 29.1605 29.4043C28.96 29.6292 28.8019 29.8879 28.6939 30.1682L28.6934 30.1696C28.6575 30.2603 28.634 30.355 28.6232 30.4513H32.3254V30.0877H29.1487L29.3313 29.8102C29.433 29.6558 29.5491 29.5113 29.6783 29.3786C29.8137 29.2347 30.1131 28.9704 30.5622 28.5889L30.5644 28.587C30.968 28.2551 31.351 27.8992 31.7111 27.5213C31.9034 27.3135 32.0612 27.0768 32.1787 26.8201C32.2683 26.6132 32.3157 26.3907 32.3183 26.1656L32.3183 26.1638C32.3227 25.9614 32.2836 25.7604 32.2036 25.5742C32.1237 25.3881 32.0048 25.2209 31.8548 25.0837C31.6844 24.9299 31.4849 24.8113 31.2679 24.7346C31.0506 24.6579 30.8201 24.6247 30.5898 24.6371L30.5797 24.6376L30.5697 24.6371C30.1098 24.611 29.657 24.7569 29.3006 25.0457ZM30.5803 24.2782C30.0307 24.2496 29.49 24.426 29.0651 24.7728L29.06 24.7769L29.0553 24.7813C28.6535 25.1605 28.4177 25.6805 28.3983 26.2298L28.3924 26.3987L29.5491 26.5077L29.5377 26.2996C29.5301 26.1599 29.5512 26.02 29.5998 25.8886C29.6479 25.7584 29.7219 25.6391 29.8175 25.5377C29.9137 25.4456 30.0279 25.3738 30.1532 25.327C30.2796 25.2796 30.4145 25.2586 30.5495 25.2653L30.5575 25.2657L30.5656 25.2654C30.8286 25.2553 31.0851 25.3471 31.2807 25.5213C31.3638 25.6026 31.4296 25.6995 31.4743 25.8063C31.519 25.9132 31.5417 26.0278 31.541 26.1434C31.5255 26.437 31.4163 26.7181 31.2292 26.9464C30.8351 27.4169 30.3899 27.843 29.9016 28.2171L29.9001 28.2183L29.8986 28.2195C29.5382 28.5079 29.2012 28.8238 28.8908 29.1645L28.8896 29.1659C28.6601 29.423 28.4792 29.7189 28.3556 30.0395C28.2804 30.2301 28.2462 30.4343 28.2553 30.6387L28.263 30.8103H32.6879V29.7287H29.846C29.8765 29.6939 29.9079 29.6598 29.9402 29.6267L29.9425 29.6242C30.0603 29.4988 30.342 29.2489 30.797 28.8622C31.2119 28.521 31.6055 28.1552 31.9756 27.7667L31.9773 27.7648C32.1963 27.5284 32.376 27.2589 32.5096 26.9666L32.5103 26.965L32.511 26.9635C32.6198 26.7128 32.6775 26.4433 32.6807 26.1705C32.686 25.9176 32.6371 25.6665 32.5371 25.4337C32.4371 25.2006 32.2881 24.9913 32.1002 24.8195L32.0994 24.8188C31.8934 24.6328 31.6522 24.4893 31.3896 24.3965C31.1302 24.3049 30.8553 24.2647 30.5803 24.2782Z" fill="#FEFEFE"/>
<path d="M18.705 36.3977V32.3325H16.885C16.5191 32.3325 16.241 32.3694 16.0506 32.4434C15.8602 32.5155 15.7081 32.644 15.5942 32.8288C15.4803 33.0137 15.4234 33.218 15.4234 33.4417C15.4234 33.7301 15.5177 33.9732 15.7062 34.171C15.8947 34.3688 16.1859 34.4945 16.5798 34.5481C16.436 34.6165 16.3269 34.684 16.2522 34.7505C16.0935 34.8947 15.9433 35.075 15.8014 35.2913L15.0874 36.3977H15.7706L16.3138 35.5519C16.4724 35.3079 16.6031 35.1212 16.7058 34.9918C16.8084 34.8624 16.8999 34.7718 16.9802 34.72C17.0623 34.6683 17.1454 34.6322 17.2294 34.6119C17.291 34.5989 17.3918 34.5925 17.5318 34.5925H18.1618V36.3977H18.705ZM18.1618 34.1266H16.9942C16.7459 34.1266 16.5518 34.1016 16.4118 34.0517C16.2718 34 16.1654 33.9186 16.0926 33.8077C16.0198 33.6949 15.9834 33.5729 15.9834 33.4417C15.9834 33.2494 16.0534 33.0913 16.1934 32.9675C16.3353 32.8436 16.5583 32.7817 16.8626 32.7817H18.1618V34.1266Z" fill="#FEFEFE"/>
<path d="M19.6116 32.312H20.1575V34.1012C20.4071 34.1012 20.5825 34.0538 20.6838 33.9591C20.7851 33.8625 20.9145 33.6321 21.0721 33.2679C21.1865 33.0004 21.2803 32.8118 21.3535 32.7022C21.4286 32.5907 21.5346 32.4978 21.6715 32.4235C21.8085 32.3473 21.9595 32.3092 22.1246 32.3092C22.3347 32.3092 22.4454 32.3111 22.4566 32.3148V32.783C22.4379 32.783 22.4013 32.7821 22.3469 32.7802C22.2868 32.7783 22.2503 32.7774 22.2371 32.7774C22.0627 32.7774 21.9332 32.8192 21.8488 32.9028C21.7625 32.9864 21.664 33.1648 21.5533 33.4379C21.4145 33.7835 21.2972 34.0018 21.2016 34.0929C21.1059 34.182 20.9914 34.2536 20.8582 34.3075C21.1246 34.3799 21.3873 34.6233 21.6462 35.0376L22.496 36.3977H21.8178L21.1284 35.2885C20.9389 34.9819 20.7804 34.772 20.6528 34.6586C20.5252 34.5434 20.3601 34.4858 20.1575 34.4858V36.3977H19.6116V32.312Z" fill="#FEFEFE"/>
<path d="M22.6142 32.312H23.1658L24.5109 34.8147L25.6872 32.312H26.2303L24.6826 35.4891C24.4893 35.8867 24.3308 36.1469 24.207 36.2695C24.0832 36.3921 23.9059 36.4534 23.6751 36.4534C23.5344 36.4534 23.3618 36.4209 23.1573 36.3559V35.8932C23.3037 35.9769 23.4584 36.0187 23.6217 36.0187C23.7549 36.0187 23.8693 35.9769 23.965 35.8932C24.0625 35.8078 24.1695 35.6145 24.2858 35.3136L22.6142 32.312Z" fill="#FEFEFE"/>
<path d="M27.7443 36.3977V32.7941H26.3851V32.312H29.655V32.7941H28.2902V36.3977H27.7443Z" fill="#FEFEFE"/>
<path d="M33.1613 34.9652L33.7073 35.1017C33.5928 35.5458 33.3865 35.8849 33.0882 36.119C32.7918 36.3512 32.4287 36.4674 31.9991 36.4674C31.5545 36.4674 31.1924 36.3782 30.9129 36.1998C30.6352 36.0196 30.4232 35.7595 30.2769 35.4195C30.1325 35.0794 30.0602 34.7144 30.0602 34.3242C30.0602 33.8987 30.1418 33.528 30.3051 33.2122C30.4701 32.8945 30.7037 32.6539 31.0058 32.4904C31.3097 32.325 31.6436 32.2423 32.0076 32.2423C32.4203 32.2423 32.7674 32.3464 33.0488 32.5545C33.3302 32.7625 33.5262 33.0552 33.6369 33.4323L33.0994 33.5578C33.0037 33.2605 32.8649 33.044 32.6829 32.9084C32.501 32.7728 32.2721 32.7049 31.9963 32.7049C31.6793 32.7049 31.4138 32.7802 31.1999 32.9307C30.9879 33.0812 30.8388 33.2837 30.7525 33.5383C30.6662 33.7909 30.623 34.052 30.623 34.3214C30.623 34.6688 30.6737 34.9726 30.775 35.2327C30.8782 35.491 31.0377 35.6842 31.2534 35.8124C31.4691 35.9406 31.7027 36.0047 31.9541 36.0047C32.2599 36.0047 32.5188 35.9174 32.7308 35.7427C32.9428 35.5681 33.0863 35.3089 33.1613 34.9652Z" fill="#FEFEFE"/>
<path d="M34.3911 32.312H34.937V34.1012C35.1865 34.1012 35.3619 34.0538 35.4632 33.9591C35.5645 33.8625 35.694 33.6321 35.8516 33.2679C35.966 33.0004 36.0598 32.8118 36.133 32.7022C36.208 32.5907 36.314 32.4978 36.451 32.4235C36.5879 32.3473 36.739 32.3092 36.904 32.3092C37.1142 32.3092 37.2248 32.3111 37.2361 32.3148V32.783C37.2173 32.783 37.1808 32.7821 37.1264 32.7802C37.0663 32.7783 37.0297 32.7774 37.0166 32.7774C36.8421 32.7774 36.7127 32.8192 36.6283 32.9028C36.542 32.9864 36.4435 33.1648 36.3328 33.4379C36.194 33.7835 36.0767 34.0018 35.981 34.0929C35.8853 34.182 35.7709 34.2536 35.6377 34.3075C35.9041 34.3799 36.1668 34.6233 36.4256 35.0376L37.2755 36.3977H36.5973L35.9079 35.2885C35.7184 34.9819 35.5599 34.772 35.4323 34.6586C35.3047 34.5434 35.1396 34.4858 34.937 34.4858V36.3977H34.3911V32.312Z" fill="#FEFEFE"/>
</g>
<defs>
<clipPath id="clip0_2590_2307">
<rect width="52" height="52" fill="white"/>
</clipPath>
</defs>
</svg>
